{
    "asset" : {
        "generator" : "Khronos glTF Blender I/O v1.1.46",
        "version" : "2.0"
    },
    "scene" : 0,
    "scenes" : [
        {
            "name" : "Scene",
            "nodes" : [
                0,
                1
            ]
        }
    ],
    "nodes" : [
        {
            "mesh" : 0,
            "name" : "Cylinder",
            "rotation" : [
                0.6801493167877197,
                0.7193483114242554,
                0.07408663630485535,
                -0.1201920136809349
            ],
            "scale" : [
                0.018714584410190582,
                0.018714578822255135,
                0.018714576959609985
            ]
        },
        {
            "name" : "Camera",
            "rotation" : [
                0.48170700669288635,
                0.3342514932155609,
                -0.21292176842689514,
                0.7816000580787659
            ],
            "translation" : [
                5.013125419616699,
                4.517945766448975,
                4.616332054138184
            ]
        }
    ],
    "materials" : [
        {
            "doubleSided" : true,
            "emissiveFactor" : [
                0,
                0,
                0
            ],
            "name" : "Material.Body",
            "pbrMetallicRoughness" : {
                "baseColorFactor" : [
                    0.9822508096694946,
                    0.9473068714141846,
                    0.0003035266709048301,
                    1
                ],
                "metallicFactor" : 0,
                "roughnessFactor" : 0.5
            }
        },
        {
            "doubleSided" : true,
            "emissiveFactor" : [
                0,
                0,
                0
            ],
            "name" : "Material.Root",
            "pbrMetallicRoughness" : {
                "baseColorFactor" : [
                    0.05612849444150925,
                    0.22322800755500793,
                    0.03189603611826897,
                    1
                ],
                "metallicFactor" : 0,
                "roughnessFactor" : 0.5
            }
        }
    ],
    "meshes" : [
        {
            "name" : "Cylinder",
            "primitives" : [
                {
                    "attributes" : {
                        "POSITION" : 0,
                        "NORMAL" : 1,
                        "TEXCOORD_0" : 2
                    },
                    "indices" : 3,
                    "material" : 0
                },
                {
                    "attributes" : {
                        "POSITION" : 4,
                        "NORMAL" : 5,
                        "TEXCOORD_0" : 6
                    },
                    "indices" : 7,
                    "material" : 1
                }
            ]
        }
    ],
    "accessors" : [
        {
            "bufferView" : 0,
            "componentType" : 5126,
            "count" : 174,
            "max" : [
                2.2881853580474854,
                4.308604717254639,
                1.059792160987854
            ],
            "min" : [
                -0.9586120843887329,
                -4.252166271209717,
                -1.0562936067581177
            ],
            "type" : "VEC3"
        },
        {
            "bufferView" : 1,
            "componentType" : 5126,
            "count" : 174,
            "type" : "VEC3"
        },
        {
            "bufferView" : 2,
            "componentType" : 5126,
            "count" : 174,
            "type" : "VEC2"
        },
        {
            "bufferView" : 3,
            "componentType" : 5123,
            "count" : 264,
            "type" : "SCALAR"
        },
        {
            "bufferView" : 4,
            "componentType" : 5126,
            "count" : 30,
            "max" : [
                2.3382480144500732,
                5.283292293548584,
                0.14297431707382202
            ],
            "min" : [
                1.6336702108383179,
                4.211947441101074,
                -0.5671877861022949
            ],
            "type" : "VEC3"
        },
        {
            "bufferView" : 5,
            "componentType" : 5126,
            "count" : 30,
            "type" : "VEC3"
        },
        {
            "bufferView" : 6,
            "componentType" : 5126,
            "count" : 30,
            "type" : "VEC2"
        },
        {
            "bufferView" : 7,
            "componentType" : 5123,
            "count" : 48,
            "type" : "SCALAR"
        }
    ],
    "bufferViews" : [
        {
            "buffer" : 0,
            "byteLength" : 2088,
            "byteOffset" : 0
        },
        {
            "buffer" : 0,
            "byteLength" : 2088,
            "byteOffset" : 2088
        },
        {
            "buffer" : 0,
            "byteLength" : 1392,
            "byteOffset" : 4176
        },
        {
            "buffer" : 0,
            "byteLength" : 528,
            "byteOffset" : 5568
        },
        {
            "buffer" : 0,
            "byteLength" : 360,
            "byteOffset" : 6096
        },
        {
            "buffer" : 0,
            "byteLength" : 360,
            "byteOffset" : 6456
        },
        {
            "buffer" : 0,
            "byteLength" : 240,
            "byteOffset" : 6816
        },
        {
            "buffer" : 0,
            "byteLength" : 96,
            "byteOffset" : 7056
        }
    ],
    "buffers" : [
        {
            "byteLength" : 7152,
            "uri" : "data:application/octet-stream;base64,"
        }
    ]
}
